<?xml version="1.0" standalone="no"?>
<!DOCTYPE svg PUBLIC "-//W3C//DTD SVG 20010904//EN"
 "http://www.w3.org/TR/2001/REC-SVG-20010904/DTD/svg10.dtd">
<svg version="1.0" xmlns="http://www.w3.org/2000/svg"
 width="300.000000pt" height="300.000000pt" viewBox="0 0 300.000000 300.000000"
 preserveAspectRatio="xMidYMid meet">
<metadata>
Created by potrace 1.16, written by Peter Selinger 2001-2019
</metadata>
<g transform="translate(0.000000,300.000000) scale(0.100000,-0.100000)"
fill="#000000" stroke="none">
<path d="M0 1500 l0 -1500 1500 0 1500 0 0 1500 0 1500 -1500 0 -1500 0 0
-1500z m1138 605 c15 -8 41 -33 57 -54 55 -73 40 -71 544 -71 438 0 452 -1
471 -20 19 -19 20 -33 20 -515 0 -482 -1 -496 -20 -515 -20 -20 -33 -20 -754
-20 l-735 0 -20 26 c-21 26 -21 36 -21 566 0 583 2 601 52 611 12 2 103 5 201
6 141 1 184 -2 205 -14z"/>
</g>
</svg>
